<svg width="113" height="113" viewBox="0 0 113 113" fill="none" xmlns="http://www.w3.org/2000/svg">
<g clip-path="url(#clip0_16_2)">
<rect width="113" height="113" fill="white"/>
<path d="M59 28V84H48.04V47.68L32.28 73.68H31L15.24 47.76V84H4.2V28H15.56L31.64 54.48L47.64 28H59ZM103.274 54.96C108.181 57.7867 110.634 62.0533 110.634 67.76C110.634 72.5067 108.954 76.4 105.594 79.44C102.234 82.48 98.101 84 93.1944 84H69.4344V28H91.5144C96.3144 28 100.341 29.4933 103.594 32.48C106.901 35.4133 108.554 39.1733 108.554 43.76C108.554 48.4 106.794 52.1333 103.274 54.96ZM91.5144 38.32H80.4744V50.64H91.5144C93.221 50.64 94.6344 50.0533 95.7544 48.88C96.9277 47.7067 97.5144 46.24 97.5144 44.48C97.5144 42.72 96.9544 41.2533 95.8344 40.08C94.7144 38.9067 93.2744 38.32 91.5144 38.32ZM93.1944 73.68C95.061 73.68 96.6077 73.0667 97.8344 71.84C99.061 70.56 99.6744 68.96 99.6744 67.04C99.6744 65.1733 99.061 63.6267 97.8344 62.4C96.6077 61.12 95.061 60.48 93.1944 60.48H80.4744V73.68H93.1944Z" fill="#E05353"/>
</g>
<defs>
<clipPath id="clip0_16_2">
<rect width="113" height="113" fill="white"/>
</clipPath>
</defs>
</svg>
